<svg id="Layer_1" data-name="Layer 1" xmlns="http://www.w3.org/2000/svg" viewBox="0 0 603.78 104.88"><title>Artboard 1</title><polygon points="575.63 37.81 575.63 37.81 566.9 23.94 551.3 39.23 535.38 16.89 528.56 26.36 528.56 26.36 513.48 1.06 501.08 32.38 481.81 16.89 481.81 80.73 481.86 80.73 481.94 80.73 488.26 80.73 488.26 80.74 521.61 80.73 538.28 80.73 560.96 80.73 561.12 80.73 561.26 80.73 602.11 80.73 602.11 7.4 575.63 37.81"/><path d="M24,4,.54,80.7H12.47l6.62-22.56H42.54L49.46,80.7H61.69L38.23,4ZM20.89,49.22,27,29.07c1.3-4.71,2.51-10.33,3.61-15h.2c1.1,4.71,2.41,10.13,3.81,15.14l6,20Z"/><path d="M99.89,24.26c-7.72,0-13.73,3.41-17.54,9.62h-.2l-.6-8.42H71.32c.2,4.91.4,10.63.4,17.85v59.75H83.35V74.18h.2c2.71,4.51,8.12,7.62,14.74,7.62,11.63,0,23.36-9.12,23.36-29.37C121.64,35.28,112.32,24.26,99.89,24.26Zm-4,48.32c-5.71,0-12.53-4.21-12.53-14.13V48.22c0-8.12,5.91-14.64,12.83-14.64,8.92,0,13.63,8.72,13.63,19.25C109.81,64.26,104.9,72.58,95.88,72.58Z"/><path d="M161.25,24.26c-7.72,0-13.73,3.41-17.54,9.62h-.2l-.6-8.42H132.67c.2,4.91.4,10.63.4,17.85v59.75H144.7V74.18h.2c2.71,4.51,8.12,7.62,14.74,7.62,11.63,0,23.36-9.12,23.36-29.37C183,35.28,173.68,24.26,161.25,24.26Zm-4,48.32c-5.71,0-12.53-4.21-12.53-14.13V48.22c0-8.12,5.91-14.64,12.83-14.64,8.92,0,13.63,8.72,13.63,19.25C171.17,64.26,166.26,72.58,157.24,72.58Z"/><path d="M218.39,36.69c-9.72-4.21-14-7.42-14-13.94,0-4.91,3.81-10.23,12.93-10.23a28.34,28.34,0,0,1,13.63,3.41l2.81-9.62A35.68,35.68,0,0,0,217.59,2.8c-15.24,0-25,9.12-25,21.25,0,10.43,7.72,17.34,19.15,22,9.12,3.81,13,7.82,13,14.34,0,6.92-5.11,11.63-14.24,11.63a33.5,33.5,0,0,1-16.64-4.51l-2.61,9.72c3.71,2.51,11.33,4.61,18.55,4.61,17.24,0,26.77-9.62,26.77-22.46C236.64,48.82,230.72,42.1,218.39,36.69Z"/><path d="M254.38,4.21A6.58,6.58,0,0,0,247.57,11a6.77,6.77,0,0,0,13.53,0A6.5,6.5,0,0,0,254.38,4.21Z"/><rect x="248.47" y="25.36" width="11.63" height="55.34"/><path d="M309.52,32.88h-.2c-2.31-4.41-6.92-8.62-15.14-8.62-12,0-23.36,10.43-23.36,29.17,0,15.44,8.92,27,22,27,7.12,0,12.53-3.41,15.34-8.12h.2v5.31c0,12.53-6.42,17.54-15.44,17.54a30.15,30.15,0,0,1-14.94-3.91l-2.61,9c4.31,2.61,11,4,17.44,4,26.17,0,27.07-20.35,27.07-31.38V41.4c0-7.42.2-12,.5-15.94H310Zm-1.3,24.76c0,9.22-6,13.84-12,13.84-8.62,0-13.53-7.72-13.53-18.55,0-11.83,5.61-19.45,13.63-19.45,7.12,0,11.93,6,11.93,13.33Z"/><path d="M361.26,24.26a18.94,18.94,0,0,0-16.74,9.42h-.3l-.6-8.22H333.49c.2,4.71.4,9.42.4,15.54V80.7h11.63V47.41c0-8.82,6.12-13.53,11.83-13.53,7.92,0,10.53,6.62,10.53,14.44V80.7H379.5V46.91C379.5,29.87,369.88,24.26,361.26,24.26Z"/><path d="M432,46.71c0-11.73-4.51-22.46-20.75-22.46-7.42,0-13.93,2.11-17.85,4.61l2.41,7.72a25.44,25.44,0,0,1,13.43-3.81c11.13,0,11.13,8.22,11.13,12.33-18.95,0-30.88,6.82-30.88,20.55,0,8.52,5.91,16.14,16.24,16.14a18.7,18.7,0,0,0,15.44-7.52h.3l.8,6.42h10.53a75,75,0,0,1-.8-13.13ZM420.71,62.05a11.28,11.28,0,0,1-11.53,11.23c-4.31,0-8.12-2.71-8.12-8.82,0-9.83,10.53-11.53,19.65-11.53Z"/><polygon points="446.68 80.7 457.76 80.7 457.76 1.1 446.68 7.43 446.68 80.7"/></svg>