<svg xmlns="http://www.w3.org/2000/svg" viewBox="0 0 387.51 265.44"><defs><style>.cls-1{fill:#231f20}</style></defs><title>rubytogether-white</title><g id="Layer_2" data-name="Layer 2"><g id="Layer_1-2" data-name="Layer 1"><path d="M384,134.63c0-.24,0-.48,0-.72a7,7,0,0,0-.16-.69,5.43,5.43,0,0,0-.13-.58,8.2,8.2,0,0,0-.45-1,1.42,1.42,0,0,1-.08-.18l-28-48.88a6.78,6.78,0,0,0-1.69-1.94l0,0a6.57,6.57,0,0,0-2.29-1.14,0,0,0,0,1,0,0L232.43,47.26,237,31.9s0-.07,0-.11a6.61,6.61,0,0,0,.22-2.09c0-.11,0-.22,0-.33a6.19,6.19,0,0,0-.37-1.67,1.85,1.85,0,0,0-.13-.29l-.15-.31a6.45,6.45,0,0,0-1.18-1.7l-.14-.12A6.77,6.77,0,0,0,233.37,24l0,0L182.07.6a6.84,6.84,0,0,0-1.25-.43c-.23-.05-.47-.06-.7-.09s-.4-.07-.59-.08-.34,0-.51,0-.53,0-.79.06h0A7.68,7.68,0,0,0,177,.41L27.69,56.17l0,0a6.6,6.6,0,0,0-2.14,1.32.34.34,0,0,1-.06.06A6.71,6.71,0,0,0,24,59.64L.61,110.88A6.62,6.62,0,0,0,0,113.12a.77.77,0,0,1,0,.15,6.62,6.62,0,0,0,.23,2.06c0,.11,0,.22.09.33a1.92,1.92,0,0,0,.09.32,6.1,6.1,0,0,0,.63,1.12,4.13,4.13,0,0,0,.33.58A6.38,6.38,0,0,0,3,119.18a.46.46,0,0,0,.07.07L170.78,226.73c.08.05.17.06.25.11a7.05,7.05,0,0,0,.73.36l.45.17a3.81,3.81,0,0,0,.44.15,6.84,6.84,0,0,0,1.69.25h0a5.79,5.79,0,0,0,.72,0,6.58,6.58,0,0,0,1-.22,1.89,1.89,0,0,0,.23,0l.25-.1h.09l.29-.16a7.42,7.42,0,0,0,.89-.45l.22-.13h0c.09-.06.16-.14.25-.21a4.69,4.69,0,0,0,.54-.46c.09-.09.19-.16.27-.25s.12-.14.18-.21.26-.32.38-.49l.3-.44.13-.23a3.49,3.49,0,0,0,.2-.44c.09-.2.18-.39.25-.59s.07-.15.09-.24,0,0,0,0l15.19-51.64L225,222.1s.07.06.08.1.15.26.24.37a5.18,5.18,0,0,0,.47.58c.11.13.22.28.34.4s.32.27.48.39.14.12.23.18l0,0c.08.06.15.13.24.19h0a6.28,6.28,0,0,0,1.57.74,2.47,2.47,0,0,0,.29.1l0,0,.17,0a6.68,6.68,0,0,0,1.57.21h.37a5.76,5.76,0,0,0,.94-.15,2.87,2.87,0,0,0,.31-.05,5.94,5.94,0,0,0,1.39-.52,1.62,1.62,0,0,1,.18-.1l.1-.05L380.72,140.5c.18-.1.32-.24.49-.35a3.71,3.71,0,0,0,.32-.23,6.53,6.53,0,0,0,1.28-1.35,2.13,2.13,0,0,0,.16-.25,6.68,6.68,0,0,0,1.06-3.14A5.09,5.09,0,0,0,384,134.63ZM332.18,88.08,303,104.82,286.23,75.61Zm-45.41,15.2L240.82,90.81,270,74.06ZM33.31,71.19l30.63,14L19.33,101.83ZM213.22,29.41,168.61,46.07l14-30.64ZM150.28,67.09l14.5,128.39L91.57,89ZM94,74l14-30.63,30.64,14ZM152.64,49.1,122,35.13l44.61-16.67ZM78,77,47.36,63,92,46.34Zm.74,16.83,71.51,104L21.4,115.23Zm98.52,93.9L163.1,62.3l57.35-21.42Zm23.85-34,16.16-55,5.26,92.35Zm25-69.76-2.95-5.12L228.68,60l26.61,7.22Zm4.69,17.88,59.13,16-53.63,80.66Zm21.11,97.22,51.52-77.51L360.2,137Zm65.86-87.38,29.2-16.75,16.75,29.21Z" class="cls-1"/><path d="M235.72,259.58a20.31,20.31,0,0,1-5.54,4.53c-4.86,2.8-10.17,1.09-13.31-4.35l-3.45-6L209.47,256l-3.34-5.78,4-2.27-4-6.87,6.74-3.88,3.95,6.86,6.86-3.95,3.34,5.78-6.87,3.95,3.34,5.79c1.17,2,2.91,2.36,4.91,1.21a23.82,23.82,0,0,0,3.29-2.56Z" class="cls-1"/><path d="M253.77,236.21c3.55,6.16,1.65,13.34-4.71,17s-13.62,1.76-17.16-4.4-1.49-13.16,4.91-16.85S250.27,230.14,253.77,236.21Zm-6.34,3.71a5.26,5.26,0,1,0-9.11,5.25c1.56,2.71,4.6,3.84,7.38,2.23S249,242.62,247.43,239.92Z" class="cls-1"/><path d="M272.8,211.83l11.43,19.84c3.65,6.32,1.31,12.55-5,16.19-6.16,3.55-12.62,2.62-16-2.43l6.7-3.85c1.37,1.7,3.45,2,5.95.61a4.41,4.41,0,0,0,1.68-6.51l-1-1.79a12.27,12.27,0,0,1-4.68,4.58,11.46,11.46,0,0,1-15.68-4c-3.55-6.15-1.46-13,4-16.17a11.87,11.87,0,0,1,6.35-1.67l-.5-.87Zm.38,16.24L270,222.5a5.93,5.93,0,0,0-5.24.52,5.35,5.35,0,0,0-2,7.63,5.46,5.46,0,0,0,7.35,1.69A6.09,6.09,0,0,0,273.18,228.07Z" class="cls-1"/><path d="M304.05,209.44l-14.35,8.27a4.93,4.93,0,0,0,6.6,1,4,4,0,0,0,2.24-3.23l6.69-3.86c1.4,4.73-.88,9.71-5.87,12.58-6.62,3.82-13.64,1.82-17.19-4.33S280.3,206.68,286.7,203c5.91-3.41,12.68-1.94,16.28,4.3A19.43,19.43,0,0,1,304.05,209.44ZM287.59,214l8-4.61c-1.69-2.07-3.67-2.42-5.75-1.22A4.66,4.66,0,0,0,287.59,214Z" class="cls-1"/><path d="M328.7,206a20.56,20.56,0,0,1-5.53,4.52c-4.87,2.81-10.18,1.1-13.32-4.35l-3.45-6-3.95,2.27-3.33-5.78,3.95-2.28-4-6.86,6.74-3.88,4,6.86,6.86-4,3.33,5.79-6.86,3.95,3.33,5.78c1.18,2,2.92,2.37,4.91,1.22a23.42,23.42,0,0,0,3.29-2.57Z" class="cls-1"/><path d="M346.52,180.86l6.64,11.52-6.73,3.88-6-10.43c-1.66-2.88-3.9-3.41-6.15-2.11a5.83,5.83,0,0,0-2.51,4.1l7.31,12.69-6.77,3.91-17-29.53L322,171l6.16,10.69a10.11,10.11,0,0,1,4.41-5.15C337.68,173.6,343.21,175.12,346.52,180.86Z" class="cls-1"/><path d="M372.42,170l-14.35,8.27a4.92,4.92,0,0,0,6.59,1A4,4,0,0,0,366.9,176l6.7-3.86c1.4,4.73-.89,9.71-5.88,12.58-6.61,3.82-13.63,1.82-17.18-4.33s-1.88-13.16,4.52-16.85c5.91-3.41,12.69-1.94,16.28,4.3A18,18,0,0,1,372.42,170ZM356,174.54l8-4.61c-1.7-2.07-3.67-2.42-5.75-1.22A4.66,4.66,0,0,0,356,174.54Z" class="cls-1"/><path d="M386.33,154.48c-3.21,2-4.79,4.09-5.48,6.54l6.66,11.56-6.78,3.91-11.62-20.18,6.78-3.9,1.24,2.16a11.64,11.64,0,0,1,5.51-6.5Z" class="cls-1"/><path d="M46.31,168.45c-3.29-1.89-5.86-2.31-8.35-1.78L30.87,178l-6.63-4.16L36.62,154.1l6.62,4.16-1.32,2.11a11.62,11.62,0,0,1,8.32,1.82Z" class="cls-1"/><path d="M61.08,196.93l-6.59-4.13.82-1.3A10.12,10.12,0,0,1,48.7,190c-5-3.14-6.25-8.74-2.73-14.35L53,164.4l6.59,4.14L53.2,178.79c-1.76,2.8-1.14,5.06,1,6.41a6,6,0,0,0,4.85.32l7.81-12.44,6.58,4.13Z" class="cls-1"/><path d="M93.52,203.58c-3.7,5.89-11,7.52-16.28,4.17a11.74,11.74,0,0,1-4.45-4.83l-.62,1-6.62-4.16,18.11-28.87L90.29,175l-6.43,10.25a11.76,11.76,0,0,1,9.66,18.3Zm-6.47-4.06a5.55,5.55,0,0,0-1.57-7.79,6.11,6.11,0,0,0-5.22-.72l-3.87,6.18a6,6,0,0,0,2.94,4.34A5.53,5.53,0,0,0,87.05,199.52Z" class="cls-1"/><path d="M94.6,230.66l-7-4.36,9.3-6.52L100.12,194l6.95,4.36L105.14,214l12.75-8.94,6.91,4.34Z" class="cls-1"/></g></g></svg>