<svg xmlns="http://www.w3.org/2000/svg" width="1718.667" height="1718.667" preserveAspectRatio="xMidYMid meet" version="1.0" viewBox="0 0 1289 1289"><metadata>Created by potrace 1.11, written by Peter Selinger 2001-2013</metadata><g fill="#000" stroke="none"><path d="M812 11285 c-441 -883 -802 -1607 -802 -1610 0 -3 1267 -5 2815 -5 l2815 0 -2 1608 -3 1607 -2010 3 -2010 2 -803 -1605z" transform="translate(0.000000,1289.000000) scale(0.100000,-0.100000)"/><path d="M7250 11280 l0 -1610 2815 0 2815 0 -805 1610 -805 1610 -2010 0 -2010 0 0 -1610z" transform="translate(0.000000,1289.000000) scale(0.100000,-0.100000)"/><path d="M0 4035 l0 -4025 6440 0 6440 0 0 4025 0 4025 -6440 0 -6440 0 0 -4025z" transform="translate(0.000000,1289.000000) scale(0.100000,-0.100000)"/></g></svg>